<?xml version="1.0" encoding="UTF-8"?>
<!DOCTYPE svg PUBLIC "-//W3C//DTD SVG 1.1//EN" "http://www.w3.org/Graphics/SVG/1.1/DTD/svg11.dtd">
<!-- Creator: CorelDRAW 2020 (64 Bit) -->
<svg xmlns="http://www.w3.org/2000/svg" xml:space="preserve" width="250mm" height="250mm" version="1.1" style="shape-rendering:geometricPrecision; text-rendering:geometricPrecision; image-rendering:optimizeQuality; fill-rule:evenodd; clip-rule:evenodd"
viewBox="0 0 25000 25000"
 xmlns:xlink="http://www.w3.org/1999/xlink"
 xmlns:xodm="http://www.corel.com/coreldraw/odm/2003">
 <defs>
  <style type="text/css">
   <![CDATA[
    .str0 {stroke:#606062;stroke-width:7.62;stroke-miterlimit:22.9256}
    .fil0 {fill:#373435;fill-rule:nonzero}
   ]]>
  </style>
 </defs>
 <g id="Camada_x0020_1">
  <metadata id="CorelCorpID_0Corel-Layer"/>
  <g id="_2375580945328">
   <path class="fil0 str0" d="M13111.37 12355.98c-244.63,-265.76 -414.54,-590.75 -539.26,-927.37 -34.23,429.37 216.7,914.37 521.41,1202.7 159.52,150.96 395.52,290.12 594.22,216.14 121.85,-45.37 189.27,-167.95 192.79,-311.8 -194.62,277.85 -551.29,57.01 -769.16,-179.67z"/>
   <path class="fil0 str0" d="M19254.93 12858.75c86.72,530.24 142.02,1067.84 126.52,1606.59 -13.38,466.48 -75.31,915.29 -177.53,1368.96 164.22,-873.82 166.48,-1740.48 37.26,-2620.68 -141.39,-963.4 -427.58,-1908.3 -800.24,-2800.87 -764.44,-1830.92 -1917.54,-3527.51 -3398.37,-4801.85 -733.29,-631 -1551.33,-1108.02 -2461.74,-1393.58 816.61,221.7 1559.17,601.33 2239.09,1123.23 767.96,589.5 1430.23,1292.43 2024.56,2067.95 610.12,796.07 1124.6,1682 1533.51,2606.98 400.69,906.33 715.7,1857.61 876.94,2843.27zm-8697.15 2867.59c-744.29,-914.9 -1347.06,-1944.28 -1802.45,-3044.93 -544.24,-1315.42 -861.76,-2783.7 -777.98,-4220.67 77.81,-1334.59 539.09,-2725.82 1636.98,-3509.18 83.66,-59.69 172.59,-110.71 260.06,-164.01 -449.75,327.82 -822.41,726.36 -1089.77,1229.82 -312.87,589.17 -478.34,1255.97 -543.17,1922.88 -135.9,1397.89 138.55,2817.25 614.05,4121.6 392.78,1077.44 940.61,2097.28 1607.22,3015.98 812.39,1119.59 1828.6,2127.74 3028.4,2782.16 1110.49,605.67 2418.57,912.34 3618.21,406.72 89.02,-37.53 174.57,-83.73 261,-127.2 -503.33,307.76 -1035.23,485.56 -1621.67,508.57 -657.53,25.84 -1307.73,-122.93 -1917.78,-372.04 -1276.91,-521.45 -2391.74,-1466.29 -3273.1,-2549.7zm-336.45 1313.57c144.25,107.51 293.56,203.25 447.16,289.21 -295.48,-75.58 -582.47,-182.55 -860.98,-330.45 -516.41,-274.23 -958.13,-655.07 -1352.04,-1094.83 358.46,516.16 777.57,967.04 1287.68,1322.12 133.95,93.28 272.08,176.02 413.57,250.23 -286.17,-62.06 -565.53,-155.44 -838.6,-288.03 -518.89,-251.97 -962.94,-619.84 -1357.05,-1048.53 361.96,507.26 788.03,946.98 1307.17,1278.97 124.66,79.72 252.13,150.67 382.12,214.05 -253.96,-44.62 -503.72,-115.84 -749.55,-219.96 -550.35,-233.09 -1020.25,-597.86 -1434.13,-1037.28 370.83,506.64 811.26,941.47 1348.89,1251.82 108.89,62.87 219.44,118.92 331.42,169.42 -254.24,-33.98 -505.2,-96.63 -752.01,-194.71 -545.75,-216.93 -1011.17,-563.43 -1422.7,-990.74 378.12,504.27 830.98,934.8 1383.72,1223.08 92.8,48.43 186.47,91.9 280.94,131.3 -245.58,-23.9 -489.14,-76.83 -729.93,-163.94 -549.15,-198.74 -1015.58,-534.11 -1429.12,-954.66 389.82,508.21 859.98,936.34 1434.73,1203.12 69.84,32.44 139.96,62.19 210.4,89.47 -228.54,-14.96 -456.61,-56.33 -683.95,-128.6 -560.56,-178.23 -1035.53,-509.2 -1455.61,-928.2 386.9,493.7 850.12,902.91 1417.5,1154.2 70.32,31.15 141.01,59.39 212.02,85.07 -223.32,-7.65 -447.02,-42.43 -670.29,-108.56 -560.34,-166 -1032.15,-481.97 -1453.62,-894.93 391.58,489.56 850.93,869.4 1417.18,1116.34 87.73,38.25 176.53,70.92 265.98,99.39 -924.77,-108.39 -1803.44,-701.54 -2329.58,-1638.73 -677.53,-1206.8 -580.3,-2700.83 208.86,-3661.47 961.07,-648.68 1767.14,-1533.86 2398.11,-2384.51 226.14,1182.17 650.88,2387.66 1303.2,3549.58 566.15,1008.47 1242.05,1893.13 1983.84,2632.27 -155.64,-65.28 -308.39,-140.54 -457.93,-227.75 -506.89,-295.54 -939.95,-688.96 -1328.86,-1135.61 354.9,526.14 767.68,996.46 1271.46,1371.85zm-7312.31 -333.1c-147.86,-705.64 -144.81,-1417.07 88.77,-2104.35 -67.01,109.24 -129.77,222.31 -183.77,342.95 -284.77,636.07 -353.67,1309.47 -281.94,2001.12 -147.87,-705.64 -144.82,-1417.06 88.76,-2104.38 -67,109.27 -129.76,222.35 -183.76,342.99 -284.81,636.06 -353.71,1309.5 -281.97,2001.15 -147.88,-705.68 -144.83,-1417.1 88.75,-2104.42 -67,109.27 -129.76,222.35 -183.76,342.99 -284.81,636.07 -353.68,1309.5 -281.98,2001.16 -147.87,-705.67 -144.78,-1417.1 88.8,-2104.43 -67.01,109.28 -129.76,222.36 -183.79,343.03 -284.81,636.03 -353.68,1309.46 -281.95,2001.12 -147.9,-705.67 -144.81,-1417.1 88.79,-2104.43 -67.03,109.28 -129.79,222.37 -183.82,343.03 -284.78,636.1 -353.61,1309.47 -281.95,2001.13 -147.93,-705.94 -144.84,-1417.7 89.05,-2105.28 54.64,-160.63 121.42,-312.55 196.46,-458.31 187.07,-221.2 408.4,-414.49 663.01,-569.96l2684.52 -1749.89c-151.39,197.7 -620.79,999.75 -712.32,1204.17 -284.81,636.04 -353.71,1309.51 -281.95,2001.16 -147.9,-705.64 -144.85,-1417.13 88.77,-2104.42 -67.01,109.28 -129.76,222.35 -183.8,343.02 -284.78,636.03 -353.64,1309.47 -281.94,2001.13 -147.9,-705.65 -144.82,-1417.11 88.76,-2104.39 -67.01,109.27 -129.76,222.35 -183.76,342.98 -284.81,636.04 -353.71,1309.51 -281.98,2001.13zm5509.29 2702.6c349.74,397.17 681,812.79 1011.69,1227.19 226.4,283.69 455.41,556.31 725.61,796.31 256.88,228.09 540.24,414.98 820.33,609.69 262.11,182.23 591.5,351.27 628.54,715.24 -108.23,-298.5 -368,-419.89 -614.84,-575.07 -286.76,-180.29 -576.8,-360.65 -837.99,-580.14 -527.4,-443.24 -926.89,-1040.8 -1327.11,-1604.33 -138.01,-194.28 -274.79,-389.71 -406.23,-588.89zm951.2 4614.82c-3.72,-4.76 -7.62,-9.42 -11.71,-13.83l-3199.23 -3498.8 98.08 -54.73 725.4 578.93 -402.87 -758.8 128.92 -71.87 708.45 565.43 -393.44 -741.13 136.4 -76.08 691.54 551.95 -384.05 -723.41 97.8 -54.54 1508.57 1934.21c281.85,361.38 615.56,672.02 991.71,923.24l907.43 606.06c56.36,37.69 89.05,99.23 89.74,169 0.73,69.81 -30.76,132.12 -86.34,170.91l-863.56 602.84c-218.53,129.81 -567.04,117.34 -742.84,-109.38zm3431.11 -7098.61l1351.35 77.39 -1877.27 -615.15 3126.68 -56.12 -3559.49 -517.73 2758.87 -447.07 -2566 -107.34 2118.24 -1813.93c11.27,-9.69 21.16,-20.46 30.11,-31.89 423.13,-383.28 429.5,-1224.92 -8.51,-2005.13 -100.19,-178.46 -214.56,-337.11 -337.55,-473.74l2241.07 -1989.2 -2763.08 1570.14c-109.01,-58.03 -218.97,-99.75 -327.29,-123.33l2705.05 -2526.77c-143.05,-198.65 -291.1,-392.9 -444.58,-582.26l-2621.45 2616.06 2284.15 -3014.2c-429.59,-484.29 -900.03,-930.73 -1419.95,-1328.52 -9.04,-6.9 -18.3,-13.43 -27.37,-20.26l-2402.68 2945.05 2137.39 -3131.85c-221.99,-146.67 -452.57,-278.36 -685.72,-405.86 1631.59,512.22 3410.96,2088.17 4676.5,4342.35 1961.3,3493.52 1956.93,7312.43 -9.76,8512.99 -1191.2,727.15 -2833.18,329.23 -4378.71,-873.63zm-4093.33 -8652.96c107.03,-466.8 290.19,-919.76 482.64,-1354.25 192.27,-434.14 406.23,-873.3 679.17,-1259.27 -106.52,467 -290.01,919.83 -482.65,1354.26 -192.42,434.04 -406.7,873.03 -679.16,1259.26zm485.57 632.73c-149.25,232.26 -301,463.49 -463.95,686.07 230.5,-563.93 511.22,-1106.88 793.42,-1645.54 370.8,-707.8 773.18,-1402.39 1204.7,-2073.65 149.28,-232.23 301.08,-463.42 464.19,-685.91 -230.08,564.13 -511.04,1106.94 -793.12,1645.69 -370.58,707.85 -773.91,1402.07 -1205.24,2073.34zm4654.58 4206.15c-275.08,167.92 -839.63,-104.77 -1210.03,-764.55 -370.43,-659.77 -322.06,-1306.58 -47.01,-1474.49 275.08,-167.92 839.67,104.77 1210.06,764.54 370.39,659.78 322.06,1306.59 46.98,1474.5zm-3204.05 1475.74l1781.29 -1369.52 -2022.3 951.67 999.81 -830.08 -1246.67 475.93c-11.02,-18.98 -21.92,-38.12 -32.87,-57.2l695.73 -580.34 -881.33 246.35c-12.28,-22.88 -24.5,-45.8 -36.62,-68.72l554.92 -471.7 -720.48 147.19c-12.63,-25.64 -25.23,-51.25 -37.66,-76.89l499.97 -418.28 -646.11 105.53c-12.56,-27.84 -24.72,-55.72 -37,-83.6l473.17 -395.85 -600.01 98.01c-11.01,-26.89 -22.1,-53.78 -32.9,-80.67l2610.62 -1061.21c-83.41,416.54 13.42,950.03 298.32,1457.49 153.16,272.82 339.29,499.64 539.08,671.27l-2125.07 1389.41c-11.28,-16.28 -22.68,-32.4 -33.89,-48.79zm3282.11 -10128.47c-1628.1,-914.27 -3187.73,-1013.04 -4391.78,-278.04 -1436.42,876.87 -2248.92,2499.03 -2281.34,4426.97 -8.04,477.71 16.87,967.57 76.28,1464.22 -378.48,553.09 -838.62,1143.26 -1372.78,1682.08 -212.64,70.09 -416.66,163.94 -608.17,280.86 -61.3,37.4 -123.3,79.1 -194.75,130.91l-3404.62 2219.37c-1598.81,976.02 -2076.17,3236.66 -1064.11,5039.4 1012.03,1802.65 3136.16,2475.19 4727.62,1503.43l350 -195.17 3276.56 3583.32c299.21,377.2 867.31,467.44 1298.1,204.43 3.75,-2.26 7.5,-4.69 11.08,-7.26l869.49 -606.97c95,-66.33 168.8,-156.72 216.6,-260.48 17.48,-25.21 33.35,-51.82 47.26,-79.65 324.74,-648.03 339.64,-725.68 347.57,-767.35 51.33,-267.3 -57.46,-534.81 -277.06,-681.34l-852.89 -569.61c-373.64,-249.58 -704.93,-557.99 -984.66,-916.68l-1142.74 -1465.17 329.43 -183.71c102.65,-48.59 187.83,-93.94 267.49,-142.56 191.29,-116.76 369.48,-257.06 532.06,-417.66 784.24,-208.07 1585.9,-291.57 2308.77,-310.19 278.48,199.14 561.97,379.37 848.79,539.44 1760.32,982.4 3233.69,1083.57 4853.3,94.89 1204.02,-735 1884.92,-2201.52 1917.39,-4129.39 31.16,-1849.59 -542.84,-3921.15 -1616.23,-5833.1 -1073.37,-1911.88 -2524.69,-3447.88 -4086.66,-4324.99z"/>
   <path class="fil0 str0" d="M15063.14 4235.18c156.55,-188.9 300.96,-389.09 441.59,-591.02 379.96,-545.61 716.95,-1119.85 1048.56,-1698.1 -229.08,10.51 -458.07,20.91 -686.89,34.94 300.05,-586.53 586.91,-1186.97 810.35,-1809.74 -198.28,249.54 -381.89,512.25 -559.49,778.08 -312.42,467.56 -599.87,950.88 -887.55,1435.02 223.5,-5.8 446.69,-12.17 669.9,-21.7 -28.65,55.07 -58.18,109.64 -86.42,164.93 -281.1,550.41 -551.87,1118.28 -750.05,1707.59z"/>
   <path class="fil0 str0" d="M17211.92 5987.13c209.77,-132.99 410.89,-281.2 608.85,-432.37 516.79,-394.67 1001.83,-829.43 1483.06,-1269.51 -221.14,-63.31 -442.12,-126.65 -664.05,-186.53 458.18,-462.21 907.9,-941.89 1303.86,-1463.14 -262.16,174.06 -514.23,365.35 -761.51,561.5 -434.91,345.06 -850.74,713.1 -1267.02,1081.8 214.44,65.99 428.75,131.37 644,193.72 -43.48,43.25 -87.67,85.7 -130.8,129.31 -429.53,433.9 -854.31,887.74 -1216.39,1385.22z"/>
   <path class="fil0 str0" d="M20878.94 7098.27c572.54,-292.29 1142.23,-603.96 1673.08,-972.39 -300.89,81.24 -597.23,182.1 -890.48,289.17 -515.77,188.31 -1020.21,404.66 -1525.25,621.53 184.14,131.5 368.37,262.38 554.34,390.73 -246.32,123.79 -490.49,252.27 -731.4,387.25 -340.42,190.74 -679.7,390.37 -997.14,620.77 238.84,-59.04 474,-135.35 707.01,-215.46 608.38,-209.19 1198.34,-466.75 1786.29,-730.57 -191.61,-131.34 -383.08,-262.71 -576.45,-391.03z"/>
   <path class="fil0 str0" d="M22879.38 11001.6c-155.52,-175.73 -310.85,-351.46 -468.77,-524.7 623.34,-139.35 1248.35,-298.2 1848.83,-522 -310.78,3.02 -621.7,26.24 -931.07,56.25 -544.15,52.77 -1083.76,135.57 -1624.1,218.75 148.19,174.02 296.65,347.45 447.39,518.85 -267.75,58.05 -534.45,121.19 -799.52,191.45 -374.52,99.33 -749.99,207.52 -1111.44,351.1 245.45,2.92 491.34,-11.88 736,-30.9 638.84,-49.68 1271,-150.94 1902.68,-258.8z"/>
   <path class="fil0 str0" d="M24836.43 13940.11c-301.81,-77.48 -608.54,-135.44 -915.36,-186.4 -539.67,-89.66 -1082.15,-149.03 -1625.36,-208.26 102.15,206.92 204.68,413.32 309.91,618.37 -273.16,-13.03 -546.54,-20.88 -820.02,-21.37 -386.45,-0.69 -775.92,6.99 -1160.24,52.57 237.08,66.35 478.81,115.6 720.35,160.48 630.65,117.13 1267.15,182.6 1904.73,241.54 -108.8,-210.47 -217.52,-420.91 -329.25,-629.6 636.98,26.29 1280.28,34.11 1915.24,-27.33z"/>
  </g>
 </g>
</svg>
